# xmcd
#
# Track frame offsets: 
#        150
#        19835
#        47115
#        72227
#        101645
#        150055
#        188906
#        210975
#        240481
#        256152
#
# Disc length: 3669 seconds
#
# Revision: 2
# Processed by: cddbd v1.5.2PL0 Copyright (c) Steve Scherf et al.
# Submitted via: ExactAudioCopyFreeDBPlugin 1.0
#
DISCID=760e530a
DTITLE=David Gogo - Dine Under The Stars
DYEAR=1997
DGENRE=Blues
TTITLE0=Don't Lose Your Cool (live)
TTITLE1=You Belong To Me (live)
TTITLE2=Tell Me (live)
TTITLE3=Sweet Little Angel (live)
TTITLE4=Hoochie Coochie Man (live)
TTITLE5=Death Letter (live)
TTITLE6=Sad And Beautiful (live)
TTITLE7=I Feel So Good (live)
TTITLE8=Western Coast (live)
TTITLE9=Fine Young Thing (live)
EXTD=YEAR: 1999  ID3G:   0
EXTT0=
EXTT1=
EXTT2=
EXTT3=
EXTT4=
EXTT5=
EXTT6=
EXTT7=
EXTT8=
EXTT9=
PLAYORDER=
